<svg width="31" height="31" viewBox="0 0 31 31" fill="none" xmlns="http://www.w3.org/2000/svg">
<path d="M15.2399 30.4867C12.4497 30.4867 9.65691 30.4917 6.86666 30.4867C2.84159 30.4792 0.00876648 27.6539 0.00375706 23.6338C-0.00125235 18.0759 -0.00125235 12.5179 0.00375706 6.96247C0.00876648 2.80715 2.82907 0.00187853 6.99691 0.00187853C12.4797 -0.000626177 17.965 -0.000626177 23.4478 0.00187853C27.6908 0.00438324 30.5036 2.82218 30.5036 7.06015C30.5036 12.568 30.5061 18.0759 30.5036 23.5837C30.5011 27.6263 27.7209 30.4441 23.6858 30.4792C22.2781 30.4917 20.8705 30.4842 19.4628 30.4867C18.0552 30.4867 16.6476 30.4867 15.2399 30.4867ZM15.2149 26.5668C17.955 26.5668 20.6952 26.5643 23.4378 26.5668C24.3846 26.5668 25.2688 26.389 25.8974 25.6075C26.6689 24.6507 26.7541 23.5712 26.2807 22.4716C25.7797 21.312 24.7904 20.8811 23.5881 20.8786C20.2042 20.8736 16.8229 20.8761 13.439 20.8761C12.5749 20.8761 11.7083 20.8987 10.8466 20.8586C10.1053 20.8235 9.62685 20.2775 9.60932 19.5461C9.59179 18.7972 10.0176 18.2587 10.7515 18.146C11.042 18.1009 11.3426 18.1059 11.6381 18.1059C15.4653 18.1034 19.2925 18.1059 23.1197 18.1034C23.4904 18.1034 23.8611 18.0959 24.2268 18.0483C25.2763 17.908 25.9926 17.3194 26.3608 16.3351C27.1072 14.3489 25.8273 12.4428 23.6783 12.4328C18.0727 12.4027 12.4697 12.4102 6.86416 12.4302C4.98562 12.4353 3.9612 13.5173 3.95619 15.4109C3.94868 18.0533 3.95368 20.6933 3.95619 23.3358C3.95869 25.605 4.92301 26.5618 7.21482 26.5643C9.88233 26.5693 12.5498 26.5668 15.2149 26.5668ZM19.4628 3.96934C18.7715 3.96934 18.0828 3.96934 17.3915 3.96934C16.6751 3.96934 15.9613 3.95431 15.2449 3.97435C13.8548 4.01192 12.878 4.72576 12.5198 5.94555C11.9537 7.86667 13.2136 9.59993 15.2775 9.63249C18.0627 9.67507 20.8505 9.66254 23.6382 9.6375C25.4241 9.62247 26.5462 8.49034 26.5462 6.79215C26.5462 5.10648 25.3965 3.99689 23.6056 3.97435C22.2255 3.95682 20.8454 3.96934 19.4628 3.96934ZM9.61433 6.77211C9.60431 5.16158 8.41708 3.97936 6.80154 3.97184C5.13841 3.96433 3.95619 5.13904 3.95869 6.79966C3.9612 8.46279 5.1334 9.6375 6.79403 9.63499C8.43211 9.63499 9.62435 8.42271 9.61433 6.77211Z" fill="#FD4436"/>
<path d="M15.2149 26.5668C12.5474 26.5668 9.88234 26.5693 7.21483 26.5668C4.92051 26.5643 3.9562 25.6075 3.9562 23.3382C3.9537 20.6957 3.95119 18.0558 3.9562 15.4133C3.96121 13.5197 4.98814 12.4377 6.86417 12.4327C12.4697 12.4152 18.0753 12.4077 23.6783 12.4352C25.8273 12.4452 27.1072 14.3513 26.3608 16.3375C25.9926 17.3194 25.2763 17.9105 24.2268 18.0508C23.8611 18.0984 23.4879 18.1059 23.1197 18.1059C19.2925 18.1084 15.4653 18.1059 11.6381 18.1084C11.3426 18.1084 11.042 18.1034 10.7515 18.1484C10.0151 18.2612 9.58929 18.7997 9.60933 19.5486C9.62686 20.28 10.1053 20.826 10.8467 20.8611C11.7083 20.9011 12.5749 20.8786 13.439 20.8786C16.8229 20.8811 20.2043 20.8761 23.5881 20.8811C24.7929 20.8836 25.7797 21.3144 26.2807 22.4741C26.7541 23.5736 26.6689 24.6507 25.8975 25.61C25.2688 26.3914 24.3846 26.5693 23.4378 26.5693C20.6977 26.5643 17.9575 26.5668 15.2149 26.5668Z" fill="white"/>
<path d="M19.4628 3.96934C20.8429 3.96934 22.2255 3.95682 23.6056 3.97185C25.3965 3.99188 26.5462 5.10397 26.5462 6.78964C26.5462 8.48784 25.4215 9.61997 23.6382 9.63499C20.8505 9.66004 18.0652 9.67507 15.2775 9.62998C13.2136 9.59742 11.9537 7.86166 12.5198 5.94305C12.8805 4.72326 13.8548 4.00942 15.2449 3.97185C15.9588 3.95181 16.6751 3.96684 17.3914 3.96684C18.0827 3.96934 18.774 3.96934 19.4628 3.96934Z" fill="white"/>
<path d="M9.61432 6.77198C9.62434 8.42259 8.4321 9.63486 6.79401 9.63486C5.1359 9.63737 3.96119 8.46266 3.95868 6.79953C3.95618 5.13891 5.1384 3.9642 6.80153 3.97172C8.41456 3.97923 9.6018 5.16145 9.61432 6.77198Z" fill="#01366E"/>
</svg>
